<?xml version="1.0" encoding="UTF-8"?><svg id="Layer_2" xmlns="http://www.w3.org/2000/svg" viewBox="0 0 318.25 446"><defs><style>.cls-1{stroke-width:5px;}.cls-1,.cls-2{fill:none;stroke:#4aa7ff;stroke-miterlimit:10;}.cls-3{fill:#4aa7ff;}.cls-2{stroke-width:10px;}</style></defs><g id="Layer_1-2"><rect class="cls-3" x="88.75" y="322" width="22" height="124"/><rect class="cls-3" x="96.75" y="42" width="6" height="111"/><rect class="cls-3" x="161.75" y="174" width="124" height="6" transform="translate(-58.52 135.59) rotate(-30)"/><rect class="cls-3" x="216.75" y="260" width="6" height="124" transform="translate(-169.98 331.19) rotate(-57.04)"/><path class="cls-3" d="m100.5,143.75C45,143.75,0,188.75,0,244.25s45,100.5,100.5,100.5,100.5-45,100.5-100.5-45-100.5-100.5-100.5Zm0,177.5c-42.53,0-77-34.47-77-77s34.47-77,77-77,77,34.47,77,77-34.47,77-77,77Z"/><circle class="cls-2" cx="99.25" cy="25.5" r="20.5"/><circle class="cls-2" cx="292.75" cy="136.5" r="20.5"/><circle class="cls-2" cx="292.75" cy="369.5" r="20.5"/><circle class="cls-3" cx="47.25" cy="275.5" r="9.5"/><circle class="cls-3" cx="83.25" cy="239.5" r="9.5"/><circle class="cls-3" cx="118.25" cy="248.5" r="9.5"/><circle class="cls-3" cx="154.25" cy="213.5" r="9.5"/><polyline class="cls-1" points="47.25 275.5 82.92 239.5 118.58 248.5 154.25 213.5"/></g></svg>