<?xml version="1.0" encoding="UTF-8"?><svg id="Layer_2" xmlns="http://www.w3.org/2000/svg" viewBox="0 0 313.45 491"><defs><style>.cls-1{stroke-width:5px;}.cls-1,.cls-2{fill:none;stroke:#4aa7ff;stroke-miterlimit:10;}.cls-3{fill:#4aa7ff;}.cls-2{stroke-width:14px;}</style></defs><g id="Layer_1-2"><rect class="cls-3" x="22.09" y="334.02" width="138.55" height="19.16" transform="translate(-196.69 135.19) rotate(-39.22)"/><rect class="cls-3" x="203.9" y="72" width="18.1" height="86"/><rect class="cls-3" x="90.89" y="141.51" width="18.1" height="80.99" transform="translate(-107.65 177.56) rotate(-60)"/><rect class="cls-3" x="203.9" y="333" width="18.1" height="86"/><path class="cls-3" d="m212.95,145.75c-55.5,0-100.5,45-100.5,100.5s45,100.5,100.5,100.5,100.5-45,100.5-100.5-45-100.5-100.5-100.5Zm0,177.5c-42.53,0-77-34.47-77-77s34.47-77,77-77,77,34.47,77,77-34.47,77-77,77Z"/><circle class="cls-2" cx="39.5" cy="143.5" r="32.5"/><circle class="cls-2" cx="212.5" cy="39.5" r="32.5"/><circle class="cls-2" cx="212.5" cy="451.5" r="32.5"/><path class="cls-3" d="m170,277.5c0,5.25-4.25,9.5-9.5,9.5-5.25,0-9.5-4.25-9.5-9.5s4.25-9.5,9.5-9.5c5.25,0,9.5,4.25,9.5,9.5Z"/><circle class="cls-3" cx="196.5" cy="241.5" r="9.5"/><circle class="cls-3" cx="231.5" cy="250.5" r="9.5"/><circle class="cls-3" cx="267.5" cy="215.5" r="9.5"/><polyline class="cls-1" points="160.5 277.5 196.17 241.5 231.83 250.5 267.5 215.5"/></g></svg>